<svg height="700pt" viewBox="0 0 700 700" width="700pt" xmlns="http://www.w3.org/2000/svg"><path d="m609.35 88.898c-.30078-22.25-11.77-42.863-30.52-54.848s-42.27-13.738-62.594-4.668c-20.32 9.0742-34.719 27.754-38.312 49.719-53.359-32.277-116.64-44.027-178.03-33.062-61.387 10.969-116.68 43.906-155.56 92.66-38.883 48.754-58.688 110-55.719 172.29 2.9688 62.285 28.508 121.37 71.848 166.2s101.52 72.367 163.67 77.449c62.152 5.0781 124.03-12.637 174.07-49.836 50.047-37.203 84.844-91.352 97.891-152.33 13.043-60.977 3.4492-124.62-26.996-179.04 17.5-25.027 40.25-62.301 40.25-84.527zm-66.852-48.648c12.887.046875 25.234 5.1875 34.352 14.301 9.1133 9.1133 14.254 21.461 14.297 34.348 0 20.648-30.625 66.324-48.648 90.824-17.5-24.324-48.824-70-48.824-90.824.046875-12.918 5.2109-25.293 14.363-34.41 9.1484-9.1172 21.543-14.238 34.461-14.238zm40.602 266.7c-1.3203 42.629-14.141 84.109-37.102 120.05h-81.023c13.18-38.688 20.262-79.188 21-120.05zm-135.98 120.05h-92.574v-120.05h113.93c-.61328 40.906-7.8242 81.441-21.352 120.05zm-339.32-120.05h97.824c1.0156 40.91 8.3984 81.41 21.875 120.05h-81.898c-23.211-35.871-36.27-77.355-37.801-120.05zm229.25-149.45h-89.949c20.824-52.5 52.5-87.5 90.125-93.273zm0 17.5v113.93h-114.1c.16797-38.633 6.0664-77.023 17.5-113.93zm-131.6 114.45h-97.473c1.2852-40.41 12.914-79.816 33.773-114.45h81.023c-11.234 37.121-17.07 75.668-17.324 114.45zm17.5 17.5h113.93v120.05h-91.875c-13.707-38.578-21.094-79.117-21.875-120.05zm113.93 137.55v81.727c-35-4.5508-64.574-35-85.398-81.727zm17.5 0h85.398c-20.824 46.551-51.102 77.176-85.398 81.727zm0-155.05v-114.45h96.25c11.434 36.902 17.332 75.293 17.5 113.93zm0-131.43v-93.273c37.102 5.25 69.477 40.25 90.301 92.75zm46.375-91.699c27.863 6.8516 54.25 18.711 77.875 35 6.8516 20.027 16.578 38.949 28.875 56.176h-44.625c-11.91-35.535-33.41-67.09-62.125-91.176zm-110.25 0c-28.574 24.145-49.945 55.688-61.773 91.176h-75.25c33.492-45.645 82.121-77.898 137.2-91zm-133 378.18h75.949c13.184 35.758 37.391 66.398 69.125 87.5-57.441-10.414-109.06-41.551-145.07-87.5zm231.18 87.5c31.734-21.102 55.941-51.742 69.125-87.5h75.25c-35.652 45.828-86.801 77.062-143.85 87.852zm195.12-242.55h-97.652c-.35938-38.613-6.2539-76.98-17.5-113.93h49.699c8.5742 12.25 15.75 21.523 17.5 24.148l6.8242 8.75 6.8242-8.75 7.6992-10.148h.003907c16.121 30.941 25.203 65.066 26.602 99.926z"/><path d="m585.2 87.5c.09375-11.117-4.2305-21.82-12.016-29.754-7.7852-7.9375-18.402-12.465-29.52-12.586-11.117-.125-21.828 4.168-29.789 11.93-7.9609 7.7617-12.516 18.367-12.668 29.484-.15625 11.117 4.1055 21.84 11.844 29.824 7.7422 7.9805 18.332 12.566 29.449 12.75 11.199.1875 22.008-4.1055 30.027-11.926 8.0195-7.8203 12.582-18.523 12.672-29.723zm-66.5 0c-.089844-6.5586 2.4531-12.879 7.0547-17.547 4.6055-4.668 10.891-7.293 17.449-7.293s12.84 2.6328 17.445 7.3008c4.6016 4.6719 7.1406 10.992 7.0469 17.551-.09375 6.5586-2.8125 12.801-7.5469 17.34-4.7383 4.5352-11.094 6.9844-17.648 6.7969-6.3164-.17969-12.316-2.793-16.754-7.293-4.4336-4.5-6.957-10.539-7.0469-16.855z"/></svg>
