<?xml version="1.0" encoding="UTF-8"?>
<svg width="700pt" height="700pt" version="1.1" viewBox="0 0 700 700" xmlns="http://www.w3.org/2000/svg" xmlns:xlink="http://www.w3.org/1999/xlink">
 <defs>
  <symbol id="v" overflow="visible">
   <path d="m3.6719-0.21875c-0.1875 0.09375-0.38672 0.16797-0.59375 0.21875-0.19922 0.050781-0.41406 0.078125-0.64062 0.078125-0.66797 0-1.1992-0.17969-1.5938-0.54688-0.38672-0.375-0.57812-0.88281-0.57812-1.5312 0-0.63281 0.19141-1.1406 0.57812-1.5156 0.39453-0.375 0.92578-0.5625 1.5938-0.5625 0.22656 0 0.44141 0.027344 0.64062 0.078125 0.20703 0.054688 0.40625 0.13281 0.59375 0.23438v0.8125c-0.1875-0.125-0.375-0.21875-0.5625-0.28125s-0.38672-0.09375-0.59375-0.09375c-0.36719 0-0.65234 0.12109-0.85938 0.35938-0.21094 0.24219-0.3125 0.5625-0.3125 0.96875 0 0.41797 0.10156 0.74609 0.3125 0.98438 0.20703 0.23047 0.49219 0.34375 0.85938 0.34375 0.20703 0 0.40625-0.03125 0.59375-0.09375s0.375-0.15625 0.5625-0.28125z"/>
  </symbol>
  <symbol id="a" overflow="visible">
   <path d="m2.6875-2.1875c-0.085938-0.03125-0.16797-0.054688-0.25-0.078125-0.085938-0.019531-0.16797-0.03125-0.25-0.03125-0.25 0-0.44531 0.078125-0.57812 0.23438-0.125 0.15625-0.1875 0.38672-0.1875 0.6875v1.375h-0.96875v-3h0.96875v0.5c0.125-0.19531 0.26562-0.34375 0.42188-0.4375s0.34766-0.14062 0.57812-0.14062c0.03125 0 0.0625 0.007813 0.09375 0.015625 0.039063 0 0.097656 0.007812 0.17188 0.015625z"/>
  </symbol>
  <symbol id="b" overflow="visible">
   <path d="m3.4531-1.5v0.26562h-2.2344c0.019531 0.23047 0.097656 0.40234 0.23438 0.51562 0.14453 0.10547 0.34375 0.15625 0.59375 0.15625 0.19531 0 0.39844-0.023438 0.60938-0.078125 0.21875-0.0625 0.4375-0.15625 0.65625-0.28125v0.73438c-0.23047 0.09375-0.46094 0.16406-0.6875 0.20312-0.21875 0.039062-0.44531 0.0625-0.67188 0.0625-0.54297 0-0.96484-0.13281-1.2656-0.40625-0.30469-0.28125-0.45312-0.67188-0.45312-1.1719 0-0.48828 0.14453-0.875 0.4375-1.1562 0.30078-0.28125 0.71094-0.42188 1.2344-0.42188 0.46875 0 0.84375 0.14844 1.125 0.4375 0.28125 0.28125 0.42188 0.66406 0.42188 1.1406zm-0.98438-0.32812c0-0.17578-0.054688-0.32031-0.15625-0.4375-0.10547-0.11328-0.24609-0.17188-0.42188-0.17188-0.1875 0-0.33984 0.054688-0.45312 0.15625-0.11719 0.10547-0.1875 0.25781-0.21875 0.45312z"/>
  </symbol>
  <symbol id="f" overflow="visible">
   <path d="m1.8125-1.3438c-0.21094 0-0.36719 0.039062-0.46875 0.10938-0.09375 0.0625-0.14062 0.15625-0.14062 0.28125s0.039063 0.22656 0.125 0.29688c0.082031 0.0625 0.19141 0.09375 0.32812 0.09375 0.1875 0 0.33594-0.0625 0.45312-0.1875 0.125-0.13281 0.1875-0.29688 0.1875-0.48438v-0.10938zm1.4531-0.375v1.7188h-0.96875v-0.4375c-0.125 0.17969-0.27344 0.30859-0.4375 0.39062-0.15625 0.082031-0.35156 0.125-0.57812 0.125-0.3125 0-0.57031-0.085938-0.76562-0.26562-0.1875-0.1875-0.28125-0.42578-0.28125-0.71875 0-0.34375 0.11719-0.59766 0.35938-0.76562 0.25-0.16406 0.62891-0.25 1.1406-0.25h0.5625v-0.078125c0-0.14453-0.0625-0.25391-0.1875-0.32812-0.11719-0.070313-0.29688-0.10938-0.54688-0.10938-0.21094 0-0.40234 0.023438-0.57812 0.0625-0.17969 0.042969-0.33984 0.10547-0.48438 0.1875v-0.73438c0.20703-0.050781 0.41016-0.085937 0.60938-0.10938 0.20703-0.03125 0.41406-0.046875 0.625-0.046875 0.53906 0 0.92969 0.10938 1.1719 0.32812 0.23828 0.21094 0.35938 0.55469 0.35938 1.0312z"/>
  </symbol>
  <symbol id="c" overflow="visible">
   <path d="m1.5-3.8438v0.84375h1v0.6875h-1v1.2656c0 0.14844 0.023438 0.24609 0.078125 0.29688 0.0625 0.042969 0.17578 0.0625 0.34375 0.0625h0.48438v0.6875h-0.8125c-0.38672 0-0.65625-0.078125-0.8125-0.23438s-0.23438-0.42578-0.23438-0.8125v-1.2656h-0.46875v-0.6875h0.46875v-0.84375z"/>
  </symbol>
  <symbol id="e" overflow="visible">
   <path d="m2.5-2.5625v-1.6094h0.96875v4.1719h-0.96875v-0.4375c-0.13672 0.17969-0.28125 0.30859-0.4375 0.39062-0.15625 0.082031-0.33984 0.125-0.54688 0.125-0.375 0-0.68359-0.14453-0.92188-0.4375-0.23047-0.28906-0.34375-0.67188-0.34375-1.1406 0-0.45703 0.11328-0.83203 0.34375-1.125 0.23828-0.30078 0.54688-0.45312 0.92188-0.45312 0.20703 0 0.39062 0.042969 0.54688 0.125 0.15625 0.085937 0.30078 0.21484 0.4375 0.39062zm-0.625 1.9375c0.19531 0 0.34766-0.070312 0.45312-0.21875 0.11328-0.14453 0.17188-0.36328 0.17188-0.65625 0-0.28125-0.058594-0.49219-0.17188-0.64062-0.10547-0.15625-0.25781-0.23438-0.45312-0.23438-0.21094 0-0.37109 0.078125-0.48438 0.23438-0.10547 0.14844-0.15625 0.35938-0.15625 0.64062 0 0.29297 0.050781 0.51172 0.15625 0.65625 0.11328 0.14844 0.27344 0.21875 0.48438 0.21875z"/>
  </symbol>
  <symbol id="m" overflow="visible">
   <path d="m2.0625-0.625c0.19531 0 0.34766-0.070312 0.45312-0.21875 0.11328-0.14453 0.17188-0.36328 0.17188-0.65625 0-0.28125-0.058594-0.49219-0.17188-0.64062-0.10547-0.15625-0.25781-0.23438-0.45312-0.23438-0.21094 0-0.37109 0.078125-0.48438 0.23438-0.10547 0.14844-0.15625 0.35938-0.15625 0.64062s0.050781 0.5 0.15625 0.65625c0.11328 0.14844 0.27344 0.21875 0.48438 0.21875zm-0.64062-1.9375c0.13281-0.17578 0.28125-0.30469 0.4375-0.39062 0.15625-0.082031 0.33594-0.125 0.54688-0.125 0.375 0 0.67578 0.15234 0.90625 0.45312 0.23828 0.29297 0.35938 0.66797 0.35938 1.125 0 0.46875-0.12109 0.85156-0.35938 1.1406-0.23047 0.29297-0.53125 0.4375-0.90625 0.4375-0.21094 0-0.39062-0.042969-0.54688-0.125-0.15625-0.082031-0.30469-0.21094-0.4375-0.39062v0.4375h-0.96875v-4.1719h0.96875z"/>
  </symbol>
  <symbol id="l" overflow="visible">
   <path d="m0.0625-3h0.96875l0.79688 2.0312 0.6875-2.0312h0.95312l-1.25 3.2812c-0.125 0.33203-0.27734 0.56641-0.45312 0.70312-0.16797 0.13281-0.38672 0.20312-0.65625 0.20312h-0.5625v-0.64062h0.29688c0.16406 0 0.28516-0.027344 0.35938-0.078125 0.070313-0.042969 0.12891-0.13281 0.17188-0.26562l0.03125-0.09375z"/>
  </symbol>
  <symbol id="k" overflow="visible">
   <path d="m2.9219-0.73438h-1.6094l-0.25 0.73438h-1.0312l1.4688-4h1.2344l1.4844 4h-1.0312zm-1.3438-0.73438h1.0938l-0.54688-1.5938z"/>
  </symbol>
  <symbol id="j" overflow="visible">
   <path d="m3.4688-1.8281v1.8281h-0.95312v-1.3906c0-0.25781-0.007813-0.4375-0.015625-0.53125-0.011719-0.10156-0.03125-0.17969-0.0625-0.23438-0.042969-0.0625-0.09375-0.10938-0.15625-0.14062s-0.13672-0.046875-0.21875-0.046875c-0.19922 0-0.35547 0.078125-0.46875 0.23438-0.11719 0.14844-0.17188 0.35938-0.17188 0.64062v1.4688h-0.96875v-3h0.96875v0.4375c0.14453-0.17578 0.29688-0.30469 0.45312-0.39062 0.16406-0.082031 0.34766-0.125 0.54688-0.125 0.34375 0 0.60156 0.10938 0.78125 0.32812 0.17578 0.21094 0.26562 0.51562 0.26562 0.92188z"/>
  </symbol>
  <symbol id="i" overflow="visible">
   <path d="m0.45312-3h0.96875v3h-0.96875zm0-1.1719h0.96875v0.78125h-0.96875z"/>
  </symbol>
  <symbol id="u" overflow="visible">
   <path d="m4.0938-0.29688c-0.25 0.125-0.51562 0.21875-0.79688 0.28125s-0.57031 0.09375-0.85938 0.09375c-0.66797 0-1.1992-0.17969-1.5938-0.54688-0.38672-0.375-0.57812-0.88281-0.57812-1.5312 0-0.64453 0.19531-1.1484 0.59375-1.5156 0.40625-0.375 0.95312-0.5625 1.6406-0.5625 0.25781 0 0.50781 0.027344 0.75 0.078125 0.25 0.054688 0.48438 0.13281 0.70312 0.23438v0.8125c-0.23047-0.125-0.45312-0.21875-0.67188-0.28125s-0.4375-0.09375-0.65625-0.09375c-0.41797 0-0.73438 0.11719-0.95312 0.34375-0.21875 0.23047-0.32812 0.55859-0.32812 0.98438 0 0.42969 0.10156 0.75781 0.3125 0.98438 0.21875 0.23047 0.52344 0.34375 0.92188 0.34375 0.10156 0 0.20312-0.003906 0.29688-0.015625 0.09375-0.007812 0.17578-0.03125 0.25-0.0625v-0.78125h-0.64062v-0.6875h1.6094z"/>
  </symbol>
  <symbol id="t" overflow="visible">
   <path d="m1.4219-0.4375v1.5781h-0.96875v-4.1406h0.96875v0.4375c0.13281-0.17578 0.28125-0.30469 0.4375-0.39062 0.15625-0.082031 0.33594-0.125 0.54688-0.125 0.375 0 0.67578 0.15234 0.90625 0.45312 0.23828 0.29297 0.35938 0.66797 0.35938 1.125 0 0.46875-0.12109 0.85156-0.35938 1.1406-0.23047 0.29297-0.53125 0.4375-0.90625 0.4375-0.21094 0-0.39062-0.042969-0.54688-0.125-0.15625-0.082031-0.30469-0.21094-0.4375-0.39062zm0.64062-1.9375c-0.21094 0-0.37109 0.078125-0.48438 0.23438-0.10547 0.14844-0.15625 0.35938-0.15625 0.64062s0.050781 0.5 0.15625 0.65625c0.11328 0.14844 0.27344 0.21875 0.48438 0.21875 0.19531 0 0.34766-0.070312 0.45312-0.21875 0.11328-0.14453 0.17188-0.36328 0.17188-0.65625 0-0.28125-0.058594-0.49219-0.17188-0.64062-0.10547-0.15625-0.25781-0.23438-0.45312-0.23438z"/>
  </symbol>
  <symbol id="h" overflow="visible">
   <path d="m3.4688-1.8281v1.8281h-0.95312v-1.3906c0-0.25781-0.007813-0.4375-0.015625-0.53125-0.011719-0.10156-0.03125-0.17969-0.0625-0.23438-0.042969-0.0625-0.09375-0.10938-0.15625-0.14062s-0.13672-0.046875-0.21875-0.046875c-0.19922 0-0.35547 0.078125-0.46875 0.23438-0.11719 0.14844-0.17188 0.35938-0.17188 0.64062v1.4688h-0.96875v-4.1719h0.96875v1.6094c0.14453-0.17578 0.29688-0.30469 0.45312-0.39062 0.16406-0.082031 0.34766-0.125 0.54688-0.125 0.34375 0 0.60156 0.10938 0.78125 0.32812 0.17578 0.21094 0.26562 0.51562 0.26562 0.92188z"/>
  </symbol>
  <symbol id="g" overflow="visible">
   <path d="m2.8906-2.9062v0.78125c-0.13672-0.082031-0.27344-0.14453-0.40625-0.1875-0.125-0.050781-0.26172-0.078125-0.40625-0.078125-0.26172 0-0.46875 0.078125-0.625 0.23438-0.14844 0.15625-0.21875 0.375-0.21875 0.65625s0.070313 0.5 0.21875 0.65625c0.15625 0.15625 0.36328 0.23438 0.625 0.23438 0.15625 0 0.30078-0.019531 0.4375-0.0625 0.13281-0.039063 0.25781-0.10938 0.375-0.20312v0.78125c-0.15625 0.0625-0.3125 0.10156-0.46875 0.125-0.14844 0.03125-0.29688 0.046875-0.45312 0.046875-0.54297 0-0.96875-0.13281-1.2812-0.40625-0.30469-0.28125-0.45312-0.67188-0.45312-1.1719 0-0.48828 0.14844-0.875 0.45312-1.1562 0.3125-0.28125 0.73828-0.42188 1.2812-0.42188 0.15625 0 0.30469 0.015625 0.45312 0.046875 0.15625 0.03125 0.3125 0.074219 0.46875 0.125z"/>
  </symbol>
  <symbol id="s" overflow="visible">
   <path d="m2.4375-4.1719v0.64062h-0.53125c-0.13672 0-0.23047 0.027344-0.28125 0.078125-0.054688 0.042969-0.078125 0.125-0.078125 0.25v0.20312h0.8125v0.6875h-0.8125v2.3125h-0.96875v-2.3125h-0.46875v-0.6875h0.46875v-0.20312c0-0.33203 0.085937-0.57812 0.26562-0.73438 0.1875-0.15625 0.47266-0.23438 0.85938-0.23438z"/>
  </symbol>
  <symbol id="d" overflow="visible">
   <path d="m1.8906-2.3906c-0.21875 0-0.38672 0.078125-0.5 0.23438-0.10547 0.15625-0.15625 0.375-0.15625 0.65625 0 0.29297 0.050781 0.51562 0.15625 0.67188 0.11328 0.14844 0.28125 0.21875 0.5 0.21875 0.20703 0 0.36328-0.070313 0.46875-0.21875 0.11328-0.15625 0.17188-0.37891 0.17188-0.67188 0-0.28125-0.058594-0.5-0.17188-0.65625-0.10547-0.15625-0.26172-0.23438-0.46875-0.23438zm0-0.6875c0.50781 0 0.91016 0.14062 1.2031 0.42188 0.28906 0.28125 0.4375 0.66797 0.4375 1.1562 0 0.49219-0.14844 0.875-0.4375 1.1562-0.29297 0.28125-0.69531 0.42188-1.2031 0.42188-0.52344 0-0.92969-0.14062-1.2188-0.42188-0.29297-0.28125-0.4375-0.66406-0.4375-1.1562 0-0.48828 0.14453-0.875 0.4375-1.1562 0.28906-0.28125 0.69531-0.42188 1.2188-0.42188z"/>
  </symbol>
  <symbol id="r" overflow="visible">
   <path d="m3.2344-2.5c0.125-0.1875 0.26953-0.32812 0.4375-0.42188 0.16406-0.10156 0.34766-0.15625 0.54688-0.15625 0.34375 0 0.60156 0.10938 0.78125 0.32812 0.1875 0.21094 0.28125 0.51562 0.28125 0.92188v1.8281h-0.96875v-1.5625-0.0625c0.007812-0.03125 0.015625-0.070312 0.015625-0.125 0-0.20703-0.03125-0.35938-0.09375-0.45312s-0.16797-0.14062-0.3125-0.14062c-0.17969 0-0.32031 0.074219-0.42188 0.21875-0.09375 0.14844-0.14844 0.36719-0.15625 0.65625v1.4688h-0.95312v-1.5625c0-0.33203-0.03125-0.54688-0.09375-0.64062-0.054687-0.09375-0.15234-0.14062-0.29688-0.14062-0.1875 0-0.33594 0.078125-0.4375 0.23438-0.09375 0.14844-0.14062 0.35938-0.14062 0.64062v1.4688h-0.96875v-3h0.96875v0.4375c0.11328-0.16406 0.24219-0.28906 0.39062-0.375 0.15625-0.09375 0.32812-0.14062 0.51562-0.14062 0.20703 0 0.39062 0.054687 0.54688 0.15625 0.15625 0.10547 0.27344 0.24609 0.35938 0.42188z"/>
  </symbol>
  <symbol id="q" overflow="visible">
   <path d="m0.5-4h1.1562l1.4531 2.75v-2.75h0.98438v4h-1.1562l-1.4531-2.75v2.75h-0.98438z"/>
  </symbol>
  <symbol id="p" overflow="visible">
   <path d="m0.42188-1.1719v-1.8281h0.96875v0.29688 0.625 0.48438c0 0.24219 0.003906 0.41406 0.015625 0.51562 0.007812 0.10547 0.03125 0.18359 0.0625 0.23438 0.039062 0.0625 0.09375 0.11719 0.15625 0.15625 0.0625 0.03125 0.13281 0.046875 0.21875 0.046875 0.19531 0 0.35156-0.078125 0.46875-0.23438 0.11328-0.15625 0.17188-0.36719 0.17188-0.64062v-1.4844h0.95312v3h-0.95312v-0.4375c-0.14844 0.17969-0.30469 0.30859-0.46875 0.39062-0.15625 0.082031-0.33594 0.125-0.53125 0.125-0.34375 0-0.60938-0.10156-0.79688-0.3125-0.17969-0.21875-0.26562-0.53125-0.26562-0.9375z"/>
  </symbol>
  <symbol id="o" overflow="visible">
   <path d="m0.5-4h1.7188c0.50781 0 0.89844 0.11719 1.1719 0.34375 0.26953 0.21875 0.40625 0.54297 0.40625 0.96875 0 0.41797-0.13672 0.74219-0.40625 0.96875-0.27344 0.21875-0.66406 0.32812-1.1719 0.32812h-0.6875v1.3906h-1.0312zm1.0312 0.75v1.1094h0.57812c0.19531 0 0.34766-0.046875 0.45312-0.14062 0.11328-0.09375 0.17188-0.22656 0.17188-0.40625 0-0.1875-0.058594-0.32812-0.17188-0.42188-0.10547-0.09375-0.25781-0.14062-0.45312-0.14062z"/>
  </symbol>
  <symbol id="n" overflow="visible">
   <path d="m0.45312-3h0.96875v2.9531c0 0.39453-0.10156 0.69531-0.29688 0.90625-0.1875 0.21875-0.46484 0.32812-0.82812 0.32812h-0.48438v-0.64062h0.17188c0.17578 0 0.29688-0.042969 0.35938-0.125 0.070312-0.074219 0.10938-0.23047 0.10938-0.46875zm0-1.1719h0.96875v0.78125h-0.96875z"/>
  </symbol>
 </defs>
 <g>
  <path d="m260.64 189.05h184.84v184.84h-184.84zm16.473 16.469h151.9v151.9h-151.9z" fill-rule="evenodd"/>
  <path d="m302.74 231.15h100.64v100.64h-100.64zm16.469 16.469h67.707v67.707h-67.707z" fill-rule="evenodd"/>
  <path d="m277.85 368.92v-8.2344h16.473v60.941h-40.629v-16.469h24.156z"/>
  <path d="m261.93 413.47c0 8.9688-7.2695 16.238-16.238 16.238s-16.238-7.2695-16.238-16.238 7.2695-16.238 16.238-16.238 16.238 7.2695 16.238 16.238"/>
  <path d="m390.86 435.9h8.2344v16.473h-34.039v-91.688h16.469v75.215z"/>
  <path d="m390.86 444.21c0 8.9688 7.2695 16.242 16.238 16.242s16.238-7.2734 16.238-16.242c0-8.9648-7.2695-16.238-16.238-16.238s-16.238 7.2734-16.238 16.238"/>
  <path d="m321.77 368.92v-8.2344h16.469v104.86h-40.625v-16.473h24.156z"/>
  <path d="m305.85 457.39c0 8.9688-7.2695 16.238-16.238 16.238s-16.242-7.2695-16.242-16.238 7.2734-16.238 16.242-16.238 16.238 7.2695 16.238 16.238"/>
  <path d="m426.31 402.41v8.2344h-16.469v-49.961h16.469z"/>
  <path d="m434.32 402.49c0 8.9688-7.2695 16.238-16.238 16.238s-16.238-7.2695-16.238-16.238 7.2695-16.238 16.238-16.238 16.238 7.2695 16.238 16.238"/>
  <path d="m426.86 191.08v8.2344h-16.473v-60.941h40.629v16.469h-24.156z"/>
  <path d="m442.79 146.53c0-8.9688 7.2695-16.238 16.238-16.238s16.238 7.2695 16.238 16.238-7.2695 16.238-16.238 16.238-16.238-7.2695-16.238-16.238"/>
  <path d="m274.14 124.1h-8.2344v-16.473h34.039v91.688h-16.473v-75.215z"/>
  <path d="m274.14 115.79c0-8.9688-7.2695-16.242-16.238-16.242s-16.238 7.2734-16.238 16.242c0 8.9648 7.2695 16.238 16.238 16.238s16.238-7.2734 16.238-16.238"/>
  <path d="m382.94 191.08v8.2344h-16.473v-104.86h40.629v16.473h-24.156z"/>
  <path d="m398.86 102.61c0-8.9688 7.2695-16.238 16.238-16.238s16.238 7.2695 16.238 16.238-7.2695 16.238-16.238 16.238-16.238-7.2695-16.238-16.238"/>
  <path d="m323.19 157.59v-8.2344h16.469v49.961h-16.469z"/>
  <path d="m315.18 157.51c0-8.9688 7.2695-16.238 16.238-16.238s16.238 7.2695 16.238 16.238-7.2695 16.238-16.238 16.238-16.238-7.2695-16.238-16.238"/>
  <path d="m255.77 204.73h8.2344v16.469h-60.941v-40.625h16.473v24.156z"/>
  <path d="m211.22 188.81c-8.9688 0-16.238-7.2734-16.238-16.242s7.2695-16.238 16.238-16.238 16.238 7.2695 16.238 16.238-7.2695 16.242-16.238 16.242"/>
  <path d="m188.79 317.74v8.2383h-16.469v-34.039h91.684v16.469h-75.215z"/>
  <path d="m180.47 317.74c-8.9688 0-16.238 7.2695-16.238 16.238s7.2695 16.238 16.238 16.238 16.238-7.2695 16.238-16.238-7.2695-16.238-16.238-16.238"/>
  <path d="m255.77 248.65h8.2344v16.469h-104.86v-40.629h16.469v24.16z"/>
  <path d="m167.3 232.73c-8.9688 0-16.238-7.2695-16.238-16.238s7.2695-16.238 16.238-16.238 16.238 7.2695 16.238 16.238-7.2695 16.238-16.238 16.238"/>
  <path d="m222.28 353.2h-8.2383v-16.469h49.961v16.469z"/>
  <path d="m222.2 361.2c-8.9688 0-16.238-7.2695-16.238-16.238s7.2695-16.238 16.238-16.238 16.238 7.2695 16.238 16.238-7.2695 16.238-16.238 16.238"/>
  <path d="m480.47 193.2v-8.2344h16.473v40.629h-60.941v-16.473h44.469z"/>
  <path d="m488.78 193.2c8.9688 0 16.238-7.2695 16.238-16.238s-7.2695-16.238-16.238-16.238-16.238 7.2695-16.238 16.238 7.2695 16.238 16.238 16.238"/>
  <path d="m444.23 352.33h-8.2344v-16.473h69.723v34.039h-16.469v-17.566z"/>
  <path d="m497.57 361.66c8.9688 0 16.238 7.2695 16.238 16.238s-7.2695 16.238-16.238 16.238-16.238-7.2695-16.238-16.238 7.2695-16.238 16.238-16.238"/>
  <path d="m524.39 237.12v-8.2344h16.469v40.629h-104.86v-16.473h88.391z"/>
  <path d="m532.7 237.12c8.9688 0 16.238-7.2695 16.238-16.238s-7.2695-16.238-16.238-16.238-16.238 7.2695-16.238 16.238 7.2695 16.238 16.238 16.238"/>
  <path d="m477.72 295h8.2383v16.469h-49.961v-16.469z"/>
  <path d="m477.8 319.47c8.9688 0 16.238-7.2695 16.238-16.238s-7.2695-16.238-16.238-16.238-16.238 7.2695-16.238 16.238 7.2695 16.238 16.238 16.238"/>
 </g>
</svg>
